<svg width="355" height="576" viewBox="0 0 355 576" fill="none" xmlns="http://www.w3.org/2000/svg">
<path d="M0 100C0 44.7715 44.7715 0 100 0H165C167.761 0 170 2.23858 170 5V275C170 277.761 167.761 280 165 280H5C2.23858 280 0 277.761 0 275V100Z" fill="#BADCCD"/>
<path d="M185 5C185 2.23857 187.239 0 190 0H255C310.228 0 355 44.7715 355 100V275C355 277.761 352.761 280 350 280H190C187.239 280 185 277.761 185 275V5Z" fill="#BADCCD"/>
<path d="M0 300C0 297.239 2.23858 295 5 295H165C167.761 295 170 297.239 170 300V570C170 572.761 167.761 575 165 575H5C2.23858 575 0 572.761 0 570V300Z" fill="#BADCCD"/>
<path d="M185 301C185 298.239 187.239 296 190 296H350C352.761 296 355 298.239 355 301V571C355 573.761 352.761 576 350 576H190C187.239 576 185 573.761 185 571V301Z" fill="#BADCCD"/>
</svg>
