<svg width="356" height="85" viewBox="0 0 356 85" fill="none" xmlns="http://www.w3.org/2000/svg">
<path d="M0 30C0 27.2386 2.23858 25 5 25H351C353.761 25 356 27.2386 356 30V70C356 72.7614 353.761 75 351 75H5C2.23858 75 0 72.7614 0 70V30Z" fill="#A4632D"/>
<path d="M0 5C0 2.23858 2.23858 0 5 0H15C17.7614 0 20 2.23858 20 5V80C20 82.7614 17.7614 85 15 85H5C2.23858 85 0 82.7614 0 80V5Z" fill="#A4632D"/>
<path d="M336 5C336 2.23858 338.239 0 341 0H351C353.761 0 356 2.23858 356 5V80C356 82.7614 353.761 85 351 85H341C338.239 85 336 82.7614 336 80V5Z" fill="#A4632D"/>
</svg>
